<?xml version="1.0" encoding="UTF-8" standalone="no"?>
<svg
   xmlns:dc="http://purl.org/dc/elements/1.1/"
   xmlns:cc="http://creativecommons.org/ns#"
   xmlns:rdf="http://www.w3.org/1999/02/22-rdf-syntax-ns#"
   xmlns:svg="http://www.w3.org/2000/svg"
   xmlns="http://www.w3.org/2000/svg"
   viewBox="0 0 436.61334 211.65334"
   height="211.65334"
   width="436.61334"
   xml:space="preserve"
   version="1.1"
   id="svg2"><metadata
     id="metadata8"><rdf:RDF><cc:Work
         rdf:about=""><dc:format>image/svg+xml</dc:format><dc:type
           rdf:resource="http://purl.org/dc/dcmitype/StillImage" /></cc:Work></rdf:RDF></metadata><defs
     id="defs6"><clipPath
       id="clipPath18"
       clipPathUnits="userSpaceOnUse"><path
         id="path20"
         d="m 0,0 3274.59,0 0,1587 L 0,1587 0,0 Z" /></clipPath></defs><g
     transform="matrix(1.3333333,0,0,-1.3333333,0,211.65333)"
     id="g10"><g
       transform="scale(0.1)"
       id="g12"><g
         id="g14"><g
           clip-path="url(#clipPath18)"
           id="g16"><path
             id="path22"
             style="fill:#ffffff;fill-opacity:1;fill-rule:nonzero;stroke:none"
             d="m 1160.41,67.6016 c 9.22,0 18.03,2.957 26.42,8.8984 8.4,5.9414 13.42,14.1094 15.07,24.5 l 13.32,0 0.26,-0.781 c -1.83,-13.6604 -8.42,-24.7307 -19.77,-33.219 -11.36,-8.4688 -23.82,-12.7188 -37.39,-12.7188 -17.22,0 -29.86,6.6602 -37.91,19.9688 -8.04,13.3203 -10.41,30.191 -7.11,50.629 l 0.92,5.48 c 3.39,21.321 10.96,38.391 22.7,51.219 11.75,12.832 26.62,19.254 44.63,19.254 14,0 25.18,-4.613 33.54,-13.844 8.34,-9.218 11.17,-21.218 8.48,-36.008 l -0.26,-0.66 -13.57,0 c 1.91,11.75 -0.07,20.879 -5.94,27.41 -5.88,6.52 -13.99,9.782 -24.34,9.782 -13.4,0 -24.44,-5.492 -33.14,-16.492 -8.7,-10.989 -14.35,-24.52 -16.97,-40.598 l -0.91,-5.473 c -2.78,-17.301 -1.7,-31.1678 3.26,-41.6482 4.96,-10.4727 14.53,-15.6992 28.71,-15.6992" /><path
             id="path24"
             style="fill:#ffffff;fill-opacity:1;fill-rule:nonzero;stroke:none"
             d="m 1324.3,184.781 -10.95,0.778 c -8.53,0 -16.34,-2.918 -23.44,-8.739 -7.09,-5.84 -12.93,-13.672 -17.55,-23.5 l -19.18,-96.2888 -15.13,0 28.19,141.1798 13.3,0 -2.86,-23.352 c 5.38,8.262 11.68,14.661 18.92,19.18 7.21,4.52 15.22,6.793 24.01,6.793 1.65,0 3.4,-0.16 5.21,-0.461 1.82,-0.312 3.28,-0.641 4.31,-0.98 l -4.83,-14.61" /><path
             id="path26"
             style="fill:#ffffff;fill-opacity:1;fill-rule:nonzero;stroke:none"
             d="m 1392.03,187.512 c -10.18,0 -19.64,-4.434 -28.39,-13.313 -8.74,-8.871 -14.8,-19.871 -18.2,-33.008 l 0.27,-0.781 75.67,0 0.66,3.91 c 2,12.789 0.39,23.192 -4.83,31.192 -5.22,8.008 -13.62,12 -25.18,12 z M 1372.72,54.2812 c -15.92,0 -28.46,6.5704 -37.59,19.7071 -9.13,13.1406 -12.09,29.6327 -8.87,49.4527 l 1.17,7.188 c 3.31,20.961 11.38,37.902 24.21,50.82 12.83,12.922 26.99,19.383 42.47,19.383 15.58,0 27.23,-5.543 34.97,-16.613 7.75,-11.059 10.18,-25.66 7.31,-43.778 l -2.09,-13.339 -92.38,0 -0.53,-3.77 c -2.6,-16.453 -0.88,-29.8632 5.16,-40.2109 6.04,-10.3516 15.46,-15.5195 28.25,-15.5195 8.61,0 16.42,1.3476 23.43,4.0781 6.99,2.7109 13.16,6.5195 18.46,11.4414 l 4.69,-10.6992 c -5.82,-5.5625 -12.78,-9.9805 -20.87,-13.2422 -8.1,-3.2695 -17.36,-4.8985 -27.79,-4.8985" /><path
             id="path28"
             style="fill:#ffffff;fill-opacity:1;fill-rule:nonzero;stroke:none"
             d="m 1489.25,68.1211 c 9.57,0 19,2.6484 28.31,7.957 9.31,5.3008 16.53,11.961 21.67,19.961 l 5.87,29.6329 -28.97,0 c -12.09,0 -22.84,-3.07 -32.24,-9.203 -9.39,-6.141 -14.95,-13.598 -16.69,-22.3792 -1.66,-8.1796 -0.57,-14.5507 3.26,-19.1289 3.82,-4.5625 10.08,-6.8398 18.79,-6.8398 z m 44.89,-11.0899 c 0.17,6.4376 0.34,10.9805 0.51,13.629 0.18,2.6484 0.61,5.6796 1.31,9.0703 -6.26,-7.3086 -13.88,-13.3711 -22.83,-18.1993 -8.96,-4.832 -18.45,-7.25 -28.45,-7.25 -12.01,0 -21.01,3.7188 -27.01,11.1602 -6.01,7.4375 -7.79,17.168 -5.35,29.168 2.69,13.9106 9.92,24.5706 21.65,31.9686 11.75,7.391 26.72,11.094 44.89,11.094 l 28.58,0 3.52,17.476 c 2.18,10.711 0.9,18.782 -3.84,24.211 -4.74,5.442 -12.56,8.153 -23.43,8.153 -9.39,0 -18.09,-2.782 -26.09,-8.352 -8,-5.558 -12.74,-12.219 -14.23,-19.961 l -13.7,0.129 -0.26,0.781 c 1.74,11.313 8.04,20.922 18.92,28.84 10.88,7.91 23.76,11.883 38.62,11.883 13.67,0 24.32,-4.031 31.97,-12.082 7.66,-8.051 10.05,-19.328 7.19,-33.859 l -13.84,-69.4222 c -1.13,-5.2188 -1.89,-10.0899 -2.28,-14.6094 -0.39,-4.5196 -0.42,-9.1289 -0.07,-13.8282 l -15.78,0" /><path
             id="path30"
             style="fill:#ffffff;fill-opacity:1;fill-rule:nonzero;stroke:none"
             d="m 1645.04,234.359 -7.3,-36.148 28.71,0 -2.48,-12.789 -28.7,0 -18.41,-91.9923 c -2,-9.918 -1.85,-16.6406 0.46,-20.1485 2.3,-3.5312 6.11,-5.2929 11.42,-5.2929 2.17,0 4.5,0.1328 6.98,0.3906 2.48,0.2617 5.06,0.6016 7.76,1.043 l -0.13,-11.6133 c -2.52,-1.1289 -5.61,-2 -9.27,-2.6094 -3.64,-0.6094 -7.26,-0.918 -10.82,-0.918 -8.7,0 -15.18,3.1797 -19.45,9.5274 -4.26,6.3516 -5,16.2226 -2.21,29.6211 l 18.39,91.9923 -22.57,0 2.48,12.789 22.58,0 7.3,36.148 15.26,0" /><path
             id="path32"
             style="fill:#ffffff;fill-opacity:1;fill-rule:nonzero;stroke:none"
             d="m 1723.47,238.672 -15,0 4.43,21.918 15.01,0 -4.44,-21.918 z m -36.28,-181.6408 -15.01,0 28.2,141.1798 15,0 -28.19,-141.1798" /><path
             id="path34"
             style="fill:#ffffff;fill-opacity:1;fill-rule:nonzero;stroke:none"
             d="m 1773.84,92.3906 1.57,-15.789 0.77,-0.1328 6.92,15.9218 52.33,105.8204 15.66,0 -72.42,-141.1798 -12.01,0 -27.4,141.1798 15.66,0 18.92,-105.8204" /><path
             id="path36"
             style="fill:#ffffff;fill-opacity:1;fill-rule:nonzero;stroke:none"
             d="m 1920.38,187.512 c -10.17,0 -19.63,-4.434 -28.38,-13.313 -8.74,-8.871 -14.81,-19.871 -18.21,-33.008 l 0.27,-0.781 75.68,0 0.66,3.91 c 1.99,12.789 0.38,23.192 -4.83,31.192 -5.22,8.008 -13.62,12 -25.19,12 z M 1901.07,54.2812 c -15.92,0 -28.45,6.5704 -37.58,19.7071 -9.13,13.1406 -12.1,29.6327 -8.88,49.4527 l 1.18,7.188 c 3.31,20.961 11.38,37.902 24.21,50.82 12.83,12.922 26.99,19.383 42.47,19.383 15.57,0 27.23,-5.543 34.97,-16.613 7.74,-11.059 10.18,-25.66 7.31,-43.778 l -2.09,-13.339 -92.38,0 -0.53,-3.77 c -2.6,-16.453 -0.88,-29.8632 5.16,-40.2109 6.04,-10.3516 15.46,-15.5195 28.25,-15.5195 8.61,0 16.42,1.3476 23.42,4.0781 7,2.7109 13.16,6.5195 18.47,11.4414 l 4.69,-10.6992 c -5.82,-5.5625 -12.78,-9.9805 -20.87,-13.2422 -8.1,-3.2695 -17.36,-4.8985 -27.8,-4.8985" /><path
             id="path38"
             style="fill:#ffffff;fill-opacity:1;fill-rule:nonzero;stroke:none"
             d="m 2100.19,234.359 -7.31,-36.148 28.72,0 -2.49,-12.789 -28.7,0 -18.4,-91.9923 c -2,-9.918 -1.85,-16.6406 0.45,-20.1485 2.31,-3.5312 6.11,-5.2929 11.42,-5.2929 2.18,0 4.5,0.1328 6.99,0.3906 2.47,0.2617 5.06,0.6016 7.76,1.043 l -0.13,-11.6133 c -2.52,-1.1289 -5.62,-2 -9.27,-2.6094 -3.65,-0.6094 -7.27,-0.918 -10.82,-0.918 -8.71,0 -15.19,3.1797 -19.45,9.5274 -4.27,6.3516 -5,16.2226 -2.22,29.6211 l 18.4,91.9923 -22.57,0 2.47,12.789 22.58,0 7.3,36.148 15.27,0" /><path
             id="path40"
             style="fill:#ffffff;fill-opacity:1;fill-rule:nonzero;stroke:none"
             d="m 2195.97,187.512 c -10.18,0 -19.64,-4.434 -28.38,-13.313 -8.75,-8.871 -14.81,-19.871 -18.21,-33.008 l 0.27,-0.781 75.68,0 0.65,3.91 c 2,12.789 0.39,23.192 -4.83,31.192 -5.21,8.008 -13.61,12 -25.18,12 z M 2176.66,54.2812 c -15.92,0 -28.45,6.5704 -37.58,19.7071 -9.14,13.1406 -12.1,29.6327 -8.88,49.4527 l 1.17,7.188 c 3.31,20.961 11.38,37.902 24.21,50.82 12.83,12.922 26.99,19.383 42.48,19.383 15.57,0 27.23,-5.543 34.97,-16.613 7.74,-11.059 10.18,-25.66 7.3,-43.778 l -2.08,-13.339 -92.39,0 -0.52,-3.77 c -2.61,-16.453 -0.89,-29.8632 5.15,-40.2109 6.05,-10.3516 15.47,-15.5195 28.26,-15.5195 8.6,0 16.42,1.3476 23.42,4.0781 7,2.7109 13.16,6.5195 18.47,11.4414 l 4.69,-10.6992 c -5.83,-5.5625 -12.78,-9.9805 -20.87,-13.2422 -8.1,-3.2695 -17.36,-4.8985 -27.8,-4.8985" /><path
             id="path42"
             style="fill:#ffffff;fill-opacity:1;fill-rule:nonzero;stroke:none"
             d="m 2307.67,67.6016 c 9.22,0 18.03,2.957 26.43,8.8984 8.39,5.9414 13.41,14.1094 15.07,24.5 l 13.31,0 0.26,-0.781 c -1.83,-13.6604 -8.42,-24.7307 -19.77,-33.219 -11.35,-8.4688 -23.81,-12.7188 -37.38,-12.7188 -17.23,0 -29.87,6.6602 -37.91,19.9688 -8.05,13.3203 -10.42,30.191 -7.11,50.629 l 0.91,5.48 c 3.39,21.321 10.96,38.391 22.71,51.219 11.74,12.832 26.61,19.254 44.62,19.254 14.01,0 25.19,-4.613 33.54,-13.844 8.35,-9.218 11.18,-21.218 8.48,-36.008 l -0.26,-0.66 -13.57,0 c 1.91,11.75 -0.07,20.879 -5.94,27.41 -5.87,6.52 -13.98,9.782 -24.34,9.782 -13.39,0 -24.44,-5.492 -33.14,-16.492 -8.7,-10.989 -14.35,-24.52 -16.96,-40.598 l -0.92,-5.473 c -2.78,-17.301 -1.69,-31.1678 3.26,-41.6482 4.96,-10.4727 14.53,-15.6992 28.71,-15.6992" /><path
             id="path44"
             style="fill:#ffffff;fill-opacity:1;fill-rule:nonzero;stroke:none"
             d="m 2424.33,176.82 0.65,-0.531 c 5.56,7.832 12.35,13.871 20.36,18.141 8,4.261 16.83,6.402 26.49,6.402 12.96,0 22.45,-4.703 28.45,-14.094 6,-9.41 7.08,-23.629 3.26,-42.679 l -17.36,-87.0278 -15.14,0 17.49,87.4688 c 3.22,16.391 2.76,27.66 -1.37,33.801 -4.13,6.14 -11.29,9.211 -21.47,9.211 -9.22,0 -17.8,-2.922 -25.76,-8.75 -7.96,-5.852 -14.55,-13.524 -19.78,-23.024 l -19.7,-98.7068 -15.13,0 40.7,203.5588 15.14,0 -16.83,-83.77" /><path
             id="path46"
             style="fill:#ffffff;fill-opacity:1;fill-rule:nonzero;stroke:none"
             d="m 2563.43,174.988 c 5.83,8.352 12.74,14.75 20.75,19.184 8,4.437 16.92,6.66 26.75,6.66 13.31,0 22.96,-4.762 28.97,-14.293 6,-9.527 7.09,-24.027 3.27,-43.519 l -17.24,-85.9888 -15.13,0 17.22,86.0278 c 3.4,17.351 3.02,29.101 -1.1,35.242 -4.14,6.14 -11.51,9.211 -22.12,9.211 -9.4,0 -17.99,-3.051 -25.77,-9.141 -7.79,-6.109 -14.21,-14.082 -19.25,-23.93 l -19.44,-97.4098 -15.14,0 28.19,141.1798 13.43,0 -3.39,-23.223" /><path
             id="path48"
             style="fill:#ffffff;fill-opacity:1;fill-rule:nonzero;stroke:none"
             d="m 2685.18,125.469 c -2.79,-16.949 -1.26,-30.8284 4.56,-41.6487 5.84,-10.8086 15.62,-16.2187 29.37,-16.2187 12.78,0 24.01,5.6289 33.66,16.8789 9.66,11.2383 15.79,24.9105 18.41,40.9885 l 0.64,4.301 c 2.61,16.691 1.02,30.48 -4.76,41.378 -5.78,10.922 -15.46,16.364 -29.03,16.364 -12.97,0 -24.3,-5.66 -34,-17 -9.69,-11.34 -15.77,-24.934 -18.2,-40.742 l -0.65,-4.301 z m -14.49,4.242 c 3.4,21.578 11.38,38.82 23.95,51.738 12.57,12.922 27.73,19.383 45.48,19.383 16.87,0 29.72,-6.723 38.56,-20.172 8.82,-13.43 11.59,-30.43 8.28,-50.949 l -0.65,-4.313 c -3.48,-21.66 -11.49,-38.9292 -24.01,-51.7964 -12.53,-12.8828 -27.63,-19.3204 -45.28,-19.3204 -16.96,0 -29.88,6.6993 -38.75,20.0977 -8.88,13.3906 -11.62,30.4101 -8.22,51.0191 l 0.64,4.313" /><path
             id="path50"
             style="fill:#ffffff;fill-opacity:1;fill-rule:nonzero;stroke:none"
             d="m 2821.79,57.0312 -15.01,0 40.72,203.5588 15,0 -40.71,-203.5588" /><path
             id="path52"
             style="fill:#ffffff;fill-opacity:1;fill-rule:nonzero;stroke:none"
             d="m 2883.13,125.469 c -2.8,-16.949 -1.27,-30.8284 4.56,-41.6487 5.83,-10.8086 15.61,-16.2187 29.36,-16.2187 12.78,0 24.01,5.6289 33.66,16.8789 9.66,11.2383 15.79,24.9105 18.41,40.9885 l 0.64,4.301 c 2.62,16.691 1.03,30.48 -4.76,41.378 -5.78,10.922 -15.46,16.364 -29.02,16.364 -12.97,0 -24.3,-5.66 -34,-17 -9.7,-11.34 -15.77,-24.934 -18.21,-40.742 l -0.64,-4.301 z m -14.49,4.242 c 3.39,21.578 11.37,38.82 23.95,51.738 12.57,12.922 27.72,19.383 45.47,19.383 16.88,0 29.73,-6.723 38.56,-20.172 8.83,-13.43 11.59,-30.43 8.28,-50.949 l -0.65,-4.313 c -3.48,-21.66 -11.49,-38.9292 -24.01,-51.7964 -12.53,-12.8828 -27.62,-19.3204 -45.27,-19.3204 -16.97,0 -29.89,6.6993 -38.76,20.0977 -8.88,13.3906 -11.62,30.4101 -8.22,51.0191 l 0.65,4.313" /><path
             id="path54"
             style="fill:#ffffff;fill-opacity:1;fill-rule:nonzero;stroke:none"
             d="m 3026.27,126.309 c -3.66,-18 -2.96,-32.2778 2.09,-42.8598 5.05,-10.5703 14.05,-15.8476 27.01,-15.8476 8.44,0 16.05,2.5 22.84,7.5273 6.78,5.0195 12.66,11.7695 17.62,20.25 l 13.04,65.6601 c -1.82,7.691 -5.54,14.031 -11.16,19.012 -5.61,4.98 -13.33,7.461 -23.16,7.461 -11.83,0 -21.87,-5.332 -30.14,-15.981 -8.27,-10.66 -14.14,-24.812 -17.62,-42.461 l -0.52,-2.761 z m -14.62,2.75 c 4.79,24.011 12.37,41.972 22.78,53.89 10.39,11.922 23.68,17.883 39.86,17.883 8.87,0 16.66,-2.141 23.35,-6.402 6.7,-4.27 11.75,-10.18 15.14,-17.739 l 6,21.52 12.79,0 -27.79,-139.3516 C 3099.87,39.4609 3092.32,24.8008 3081.14,14.8789 3069.96,4.96094 3055.81,0 3038.66,0 c -5.91,0 -12.37,0.851562 -19.38,2.55078 -6.99,1.69922 -12.89,3.92969 -17.68,6.71875 l 6.53,13.17187 c 4.53,-2.6914 9.54,-4.7812 15.07,-6.2617 5.53,-1.4805 11.51,-2.2109 17.95,-2.2109 11.91,0 22.09,4.0429 30.53,12.1328 8.43,8.0898 14.05,19.0078 16.83,32.7578 l 3.13,15.9218 c -5.39,-6.621 -11.61,-11.6796 -18.65,-15.2109 -7.05,-3.5195 -14.8,-5.2891 -23.24,-5.2891 -14.78,0 -25.93,6.8594 -33.47,20.5586 -7.52,13.6993 -9.24,30.8592 -5.14,51.4692 l 0.51,2.75" /><path
             id="path56"
             style="fill:#ffffff;fill-opacity:1;fill-rule:nonzero;stroke:none"
             d="m 3187.95,95.2617 1.17,-15.9219 0.79,-0.1289 63.02,119.0001 16.97,0 -89.65,-163.7618 C 3174.94,24.8906 3168.9,16.75 3162.11,10.0508 3155.32,3.35156 3146.72,0 3136.27,0 c -1.56,0 -3.56,0.199219 -6,0.589844 -2.43,0.390625 -4.26,0.800776 -5.48,1.238276 l 4.44,13.05078 c 1.04,-0.1797 2.61,-0.3672 4.7,-0.5898 2.08,-0.211 3.61,-0.3203 4.56,-0.3203 5.74,0 11.16,2.5195 16.25,7.5703 5.09,5.039 9.59,11.1328 13.5,18.2617 l 10.71,19.1797 -22.84,139.2305 16.83,0 15.01,-102.9493" /><path
             id="path58"
             style="fill:#ffffff;fill-opacity:1;fill-rule:nonzero;stroke:none"
             d="m 3270.29,57.0312 -17.1,0 4.31,21.3907 17.09,0 -4.3,-21.3907" /><path
             id="path60"
             style="fill:#ffffff;fill-opacity:1;fill-rule:nonzero;stroke:none"
             d="m 109.84,124.48 c 3.742,19.051 3.242,34.309 -1.5,45.801 -4.738,11.489 -13.5509,17.231 -26.4259,17.231 -9.0469,0 -17.0274,-2.903 -23.9453,-8.711 -6.9141,-5.813 -12.8086,-13.172 -17.6797,-22.09 L 27.5,92.4883 c 1.9141,-7.5977 5.8945,-13.6485 11.9414,-18.1367 6.0469,-4.5 13.9414,-6.75 23.6875,-6.75 11.6523,0 21.4141,4.8203 29.2891,14.4804 7.871,9.6485 13.508,22.867 16.902,39.637 l 0.52,2.761 z m 14.746,-2.73 C 120.062,99.2109 112.688,82.3398 102.469,71.1211 92.2461,59.8984 79.2188,54.2812 63.3867,54.2812 c -8.7031,0 -16.4883,2.2188 -23.3594,6.6602 -6.8711,4.4297 -12.0898,10.4375 -15.6562,18.0078 l -6.0039,-21.918 -13.04689,0 40.71089,203.5588 15.1407,0 -16.4453,-81.559 0.6523,-0.519 c 5.1328,7.047 11.2656,12.527 18.3984,16.437 7.1329,3.922 15.0469,5.883 23.7461,5.883 14.7886,0 25.8596,-7.254 33.2146,-21.73 7.348,-14.493 8.805,-32.692 4.371,-54.622 l -0.523,-2.73" /><path
             id="path62"
             style="fill:#ffffff;fill-opacity:1;fill-rule:nonzero;stroke:none"
             d="m 198.441,238.672 -15.003,0 4.433,21.918 15.008,0 -4.438,-21.918 z m -36.273,-181.6408 -15.008,0 28.188,141.1798 15.004,0 -28.184,-141.1798" /><path
             id="path64"
             style="fill:#ffffff;fill-opacity:1;fill-rule:nonzero;stroke:none"
             d="m 226.762,126.309 c -3.653,-18 -2.957,-32.2778 2.086,-42.8598 5.043,-10.5703 14.047,-15.8476 27.011,-15.8476 8.438,0 16.047,2.5 22.836,7.5273 6.782,5.0195 12.657,11.7695 17.614,20.25 l 13.05,65.6601 c -1.828,7.691 -5.547,14.031 -11.156,19.012 -5.609,4.98 -13.332,7.461 -23.164,7.461 -11.832,0 -21.879,-5.332 -30.141,-15.981 -8.265,-10.66 -14.136,-24.812 -17.617,-42.461 l -0.519,-2.761 z m -14.617,2.75 c 4.781,24.011 12.375,41.972 22.769,53.89 10.395,11.922 23.688,17.883 39.867,17.883 8.871,0 16.657,-2.141 23.36,-6.402 6.695,-4.27 11.738,-10.18 15.132,-17.739 l 6.004,21.52 12.789,0 L 304.27,58.8594 C 300.355,39.4609 292.809,24.8008 281.633,14.8789 270.453,4.96094 256.297,0 239.156,0 233.238,0 226.781,0.851562 219.777,2.55078 212.773,4.25 206.879,6.48047 202.098,9.26953 l 6.523,13.17187 c 4.524,-2.6914 9.547,-4.7812 15.074,-6.2617 5.52,-1.4805 11.5,-2.2109 17.942,-2.2109 11.914,0 22.093,4.0429 30.535,12.1328 8.437,8.0898 14.047,19.0078 16.828,32.7578 l 3.137,15.9218 c -5.399,-6.621 -11.617,-11.6796 -18.664,-15.2109 -7.047,-3.5195 -14.789,-5.2891 -23.227,-5.2891 -14.789,0 -25.945,6.8594 -33.469,20.5586 -7.527,13.6993 -9.242,30.8592 -5.152,51.4692 l 0.52,2.75" /><path
             id="path66"
             style="fill:#ffffff;fill-opacity:1;fill-rule:nonzero;stroke:none"
             d="m 458.242,238.672 -15.004,0 4.438,21.918 15.004,0 -4.438,-21.918 z m -36.273,-181.6408 -15.004,0 28.183,141.1798 15.004,0 -28.183,-141.1798" /><path
             id="path68"
             style="fill:#ffffff;fill-opacity:1;fill-rule:nonzero;stroke:none"
             d="m 486.562,126.309 c -3.652,-18.079 -3.027,-32.3871 1.891,-42.9184 4.914,-10.5312 13.852,-15.789 26.813,-15.789 8.351,0 15.922,2.4492 22.711,7.3281 6.781,4.8906 12.699,11.5391 17.742,19.9297 l 13.312,66.6996 c -2.004,7.613 -5.808,13.839 -11.418,18.679 -5.609,4.852 -13.332,7.274 -23.16,7.274 -11.75,0 -21.711,-5.313 -29.887,-15.922 -8.175,-10.61 -14.004,-24.789 -17.484,-42.52 l -0.52,-2.761 z m -14.75,2.75 c 4.786,24.101 12.352,42.082 22.708,53.953 10.351,11.867 23.574,17.82 39.668,17.82 8.703,0 16.355,-2.031 22.968,-6.07 6.606,-4.051 11.656,-9.723 15.133,-17.032 l 16.578,82.86 15.004,0 -40.715,-203.5588 -13.312,0 2.617,18.7891 c -5.484,-6.8789 -11.832,-12.1797 -19.055,-15.9219 -7.222,-3.7382 -15.136,-5.6172 -23.75,-5.6172 -14.703,0 -25.793,6.8594 -33.269,20.5586 -7.485,13.6993 -9.184,30.8592 -5.094,51.4692 l 0.519,2.75" /><path
             id="path70"
             style="fill:#ffffff;fill-opacity:1;fill-rule:nonzero;stroke:none"
             d="m 673.551,187.512 c -10.176,0 -19.637,-4.434 -28.379,-13.313 -8.742,-8.871 -14.809,-19.871 -18.203,-33.008 l 0.261,-0.781 75.684,0 0.648,3.91 c 2.004,12.789 0.395,23.192 -4.824,31.192 -5.222,8.008 -13.617,12 -25.187,12 z M 654.242,54.2812 c -15.922,0 -28.445,6.5704 -37.586,19.7071 -9.133,13.1406 -12.09,29.6327 -8.867,49.4527 l 1.172,7.188 c 3.305,20.961 11.375,37.902 24.203,50.82 12.836,12.922 26.992,19.383 42.477,19.383 15.57,0 27.226,-5.543 34.968,-16.613 7.743,-11.059 10.184,-25.66 7.313,-43.778 l -2.09,-13.339 -92.387,0 -0.519,-3.77 c -2.61,-16.453 -0.899,-29.8632 5.148,-40.2109 6.051,-10.3516 15.465,-15.5195 28.254,-15.5195 8.613,0 16.418,1.3476 23.426,4.0781 7,2.7109 13.152,6.5195 18.461,11.4414 l 4.699,-10.6992 c -5.828,-5.5625 -12.789,-9.9805 -20.879,-13.2422 -8.09,-3.2695 -17.355,-4.8985 -27.793,-4.8985" /><path
             id="path72"
             style="fill:#ffffff;fill-opacity:1;fill-rule:nonzero;stroke:none"
             d="m 770.766,68.1211 c 9.57,0 19.004,2.6484 28.316,7.957 9.309,5.3008 16.527,11.961 21.66,19.961 l 5.871,29.6329 -28.968,0 c -12.086,0 -22.833,-3.07 -32.227,-9.203 -9.395,-6.141 -14.969,-13.598 -16.707,-22.3792 -1.649,-8.1796 -0.566,-14.5507 3.266,-19.1289 3.828,-4.5625 10.093,-6.8398 18.789,-6.8398 z m 44.886,-11.0899 c 0.176,6.4376 0.352,10.9805 0.524,13.629 0.172,2.6484 0.609,5.6796 1.304,9.0703 -6.261,-7.3086 -13.875,-13.3711 -22.835,-18.1993 -8.957,-4.832 -18.446,-7.25 -28.446,-7.25 -12.008,0 -21.011,3.7188 -27.011,11.1602 -6.004,7.4375 -7.79,17.168 -5.348,29.168 2.691,13.9106 9.914,24.5706 21.66,31.9686 11.742,7.391 26.703,11.094 44.891,11.094 l 28.574,0 3.523,17.476 c 2.172,10.711 0.891,18.782 -3.851,24.211 -4.739,5.442 -12.547,8.153 -23.422,8.153 -9.391,0 -18.094,-2.782 -26.098,-8.352 -8.004,-5.558 -12.746,-12.219 -14.222,-19.961 l -13.704,0.129 -0.257,0.781 c 1.738,11.313 8.043,20.922 18.921,28.84 10.872,7.91 23.747,11.883 38.625,11.883 13.653,0 24.313,-4.031 31.969,-12.082 7.653,-8.051 10.047,-19.328 7.176,-33.859 L 833.789,85.4688 c -1.125,-5.2188 -1.887,-10.0899 -2.277,-14.6094 -0.395,-4.5196 -0.414,-9.1289 -0.067,-13.8282 l -15.793,0" /><path
             id="path74"
             style="fill:#ffffff;fill-opacity:1;fill-rule:nonzero;stroke:none"
             d="m 953.973,92.9805 c 1.047,6.8593 -0.52,12.6915 -4.7,17.5075 -4.171,4.813 -12.57,8.793 -25.183,11.91 -15.133,3.661 -26.012,8.481 -32.621,14.493 -6.614,6 -9.004,14.48 -7.18,25.437 1.738,11.231 7.418,20.442 17.027,27.672 9.618,7.211 21.469,10.832 35.567,10.832 14.265,0 25.246,-3.992 32.941,-11.953 7.703,-7.957 10.422,-17.77 8.16,-29.418 l -0.261,-0.781 -14.094,0 c 1.219,8 -0.715,14.808 -5.809,20.422 -5.09,5.609 -12.765,8.41 -23.031,8.41 -10.004,0 -18.156,-2.481 -24.469,-7.461 -6.304,-4.981 -9.937,-10.672 -10.89,-17.082 -1.133,-6.66 0.215,-12.071 4.047,-16.219 3.824,-4.16 12.304,-7.84 25.445,-11.039 15.047,-3.75 25.941,-8.883 32.683,-15.383 6.743,-6.508 9.243,-15.34 7.504,-26.5077 -2.004,-12.2187 -7.961,-21.8711 -17.879,-28.9297 -9.918,-7.0703 -22.269,-10.6094 -37.058,-10.6094 -15.309,0 -27.031,4.1407 -35.164,12.4102 -8.133,8.25 -11.07,17.9492 -8.809,29.0898 l 0.262,0.7891 13.965,0 c -1.047,-10.1406 1.601,-17.5 7.957,-22.0898 6.347,-4.5899 14.308,-6.8789 23.879,-6.8789 9.918,0 18.398,2.4882 25.445,7.4804 7.047,4.9883 11.133,10.9571 12.266,17.8985" /><path
             id="path76"
             style="fill:#ffffff;fill-opacity:1;fill-rule:nonzero;stroke:none"
             d="m 1014.13,57.0312 -17.091,0 4.301,21.3907 17.1,0 -4.31,-21.3907" /><path
             id="path78"
             style="fill:#ffffff;fill-opacity:1;fill-rule:nonzero;stroke:none"
             d="m 345.352,1423.94 0,-203.38 139.668,0 0,-157.32 -139.668,0 0,-422.857 c 0,-32.223 6.632,-55.242 19.957,-69.063 13.285,-13.808 31.203,-20.711 53.711,-20.711 11.777,0 21.875,0.629 30.324,1.922 8.429,1.27 18.285,3.449 29.531,6.508 l 19.199,-161.93 c -22.523,-7.668 -44.523,-13.429 -66.012,-17.269 -21.488,-3.828 -44.773,-5.75 -69.835,-5.75 -77.258,0 -136.727,21.219 -178.418,63.711 -41.711,42.449 -62.551,109.73 -62.551,201.828 l 0,423.611 -121.258,0 0,157.32 121.258,0 0,203.38 224.094,0" /><path
             id="path80"
             style="fill:#ffffff;fill-opacity:1;fill-rule:nonzero;stroke:none"
             d="m 863.367,390.211 -224.094,0 0,830.349 224.094,0 0,-830.349 z m 0,1029.119 -224.094,0 0,168.07 224.094,0 0,-168.07" /><path
             id="path82"
             style="fill:#ffffff;fill-opacity:1;fill-rule:nonzero;stroke:none"
             d="m 1306.94,1234.38 c 0,-22 5.49,-44.63 16.49,-67.92 11,-23.28 27.49,-49 49.51,-77.12 l 65.99,42.98 c 28.65,18.41 47.98,37.33 57.94,56.79 10,19.43 14.96,40.67 14.96,63.69 0,25.58 -9.33,48.35 -27.98,68.31 -18.69,19.94 -43.12,29.91 -73.32,29.91 -33.27,0 -58.84,-11.12 -76.74,-33.38 -17.91,-22.25 -26.85,-50 -26.85,-83.26 z m 78.28,-687.61 c 27.1,0 54.21,3.441 81.34,10.332 27.11,6.886 53.22,17.218 78.28,30.996 l -230.23,266.398 -14.59,-9.941 c -26.08,-24.5 -43.87,-48.364 -53.32,-71.578 -9.49,-23.231 -14.21,-46.567 -14.21,-70.043 0,-45.426 14.07,-82.805 42.21,-112.145 28.14,-29.359 64.97,-44.019 110.52,-44.019 z M 1008.4,691.035 c 0,60.363 16.62,112.442 49.88,156.176 33.26,43.75 83.91,89.402 151.95,136.992 -34.79,47.067 -60.75,90.037 -77.89,128.937 -17.15,38.85 -25.72,78.52 -25.72,118.93 0,88.51 27.63,159.26 82.9,212.2 55.24,52.95 129.17,79.44 221.78,79.44 81.35,0 147.48,-25.22 198.38,-75.61 50.9,-50.39 76.38,-111.4 76.38,-183.03 0,-50.14 -12.56,-95.92 -37.63,-137.36 -25.06,-41.45 -59.34,-77.77 -102.81,-108.98 l -71.38,-50.648 211.82,-247.109 c 18.41,30.691 32.74,63.953 42.98,99.769 10.21,35.797 15.35,73.668 15.35,113.567 l 167.29,0 c 0,-70.59 -8.73,-135.567 -26.11,-194.911 -17.39,-59.363 -44,-112.054 -79.8,-158.097 l 159.63,-187.25 -1.55,-3.84 -248.64,0 -59.1,68.301 c -43.47,-28.141 -88.25,-49.242 -134.28,-63.321 -46.04,-14.062 -95.43,-21.101 -148.12,-21.101 -111.56,0 -200.31,29.281 -266.31,87.871 -66,58.57 -99,134.934 -99,229.074" /><path
             id="path84"
             style="fill:#ffffff;fill-opacity:1;fill-rule:nonzero;stroke:none"
             d="m 2288.48,1220.56 9.23,-109.73 c 26.57,39.9 59.97,70.71 100.14,92.47 40.16,21.73 86.58,32.61 139.28,32.61 53.22,0 98.73,-11.78 136.6,-35.29 37.87,-23.55 66.53,-59.1 85.96,-106.69 25.59,44.53 58.81,79.31 99.78,104.39 40.9,25.06 89.02,37.59 144.28,37.59 81.84,0 146.43,-28.27 193.77,-84.8 47.31,-56.52 71,-142.62 71,-258.227 l 0,-502.672 -224.11,0 0,504.59 c 0,63.074 -10.25,106.909 -30.7,131.519 -20.45,24.6 -50.89,36.92 -91.3,36.92 -31.75,0 -59.24,-7.04 -82.51,-21.15 -23.3,-14.1 -41.85,-33.72 -55.65,-58.836 0,-9.75 0.25,-18.074 0.78,-25.012 0.49,-6.914 0.74,-13.972 0.74,-21.152 l 0,-546.879 -223.3,0 0,504.59 c 0,61.523 -10.24,104.996 -30.69,130.379 -20.49,25.37 -51.18,38.06 -92.12,38.06 -30.16,0 -56.67,-5.77 -79.41,-17.31 -22.77,-11.54 -41.57,-27.81 -56.42,-48.844 l 0,-606.875 -223.3,0 0,830.349 207.95,0" /></g></g></g></g></svg>
